<svg xmlns="http://www.w3.org/2000/svg" width="40.083" height="40.068" viewBox="0 0 40.083 40.068">
  <path id="Path_30" data-name="Path 30" d="M30.15,24.038a3.988,3.988,0,0,0,3.506-2.064l7.172-13a2,2,0,0,0-1.743-2.965H9.434L7.551,2H1V6.007H5.007l7.212,15.206L9.515,26.1a4.014,4.014,0,0,0,3.506,5.95H37.062V28.044H13.021l2.2-4.007ZM11.338,10.014H35.679L30.15,20.031H16.086Zm1.683,24.041a4.007,4.007,0,1,0,4.007,4.007A4,4,0,0,0,13.021,34.055Zm20.034,0a4.007,4.007,0,1,0,4.007,4.007A4,4,0,0,0,33.055,34.055Z" transform="translate(-1 -2)" fill="teal"/>
</svg>
