<?xml version="1.0" encoding="utf-8"?>
<!-- Generator: Adobe Illustrator 23.0.2, SVG Export Plug-In . SVG Version: 6.00 Build 0)  -->
<svg version="1.1" id="Layer_1" xmlns="http://www.w3.org/2000/svg" xmlns:xlink="http://www.w3.org/1999/xlink" x="0px" y="0px"
	 viewBox="0 0 100 122.6" style="enable-background:new 0 0 100 122.6;" xml:space="preserve">
<style type="text/css">
	.st0{fill:none;}
	.st1{fill:#FFFFFF;}
</style>
<path d="M43.4,10.6c0.1,0.1,0.1,0.2,0.2,0.2C43.7,10.9,43.6,10.8,43.4,10.6z"/>
<path d="M52.7,10.5C52.6,10.5,52.6,10.5,52.7,10.5C52.6,10.5,52.6,10.5,52.7,10.5z"/>
<g>
	<path class="st0" d="M21.2,67c0,0,1.5-2.1,5.2-3.5c0,0,8-2.4,11.6-5c0,0.1,0,0.3,0,0.4c0,0.8,0.1,1.7,0.2,2.6
		c0.4,4,1.4,9.1,1.4,9.1c1.2-2.1,2.4-3.3,3.3-4.1c1.2-1,2.2-1.1,2.9-1c0.7,0.1,1.1,0.5,1.3,0.7c-4.1-4.6-6.5-10.7-6.8-11.5
		c0.1-1.1,0-1.8,0-1.8c0,0,0,0,0,0c-1.2-1.8-2.3-3.7-2.9-5.8c-1.2-1.4-1.8-4.3-1.8-4.3c-1.4-3.9,0.1-4.8,0.5-4.9
		c-1.4-8-0.3-10.8-0.3-10.8c2.1-6.5,9.3-9.6,9.3-9.6c0.9-0.3,1.4-0.2,1.4-0.2l1.1,0.7l1-0.7l1,0.4c0-1.9,2.2-2.2,2.2-2.2
		c1,2.5,3.4,3.5,3.4,3.5c6.3,1.3,8.8,4.7,8.8,4.7c4.1,4.6,2.4,11.8,1.6,14.3c0.5,0.4,1.2,1.6,0.1,4.7c0,0-0.7,3.2-2,4.5
		c-0.8,2.1-1.9,3.6-3.3,5.5c0.1-0.1,0.1,0.5,0.1,0.5c0,0.4,0,0.8,0,1.2c-0.2,0.5-1.9,5.6-6.9,11.7c0.2-0.2,0.7-0.7,1.6-0.8
		c0.8-0.1,1.8,0.2,3,1.3c0.9,0.8,1.9,2,3.1,3.9c0,0,0.9-4.2,1.3-8c0.2-1.3,0.3-2.5,0.3-3.5c0-0.1,0-0.2,0-0.2
		c3.7,2.6,11.4,4.9,11.4,4.9c3.6,1.4,5.2,3.5,5.2,3.5c2.8,4.1,4.3,6.8,5.1,8.9c5.5-7.2,8.8-16.3,8.8-26.1c0-23.7-19.3-43-43-43
		s-43,19.3-43,43c0,9.8,3.3,18.8,8.8,26.1C16.9,73.8,18.4,71.1,21.2,67z"/>
	<path class="st1" d="M50.3,2.9c-25.9,0-47,21.1-47,47c0,25.9,21.1,47,47,47s47-21.1,47-47C97.3,24,76.2,2.9,50.3,2.9z M50.3,6.9
		c23.7,0,43,19.3,43,43c0,9.8-3.3,18.8-8.8,26.1c-0.8-2.1-2.3-4.8-5.1-8.9c0,0-1.5-2.1-5.2-3.5c0,0-7.7-2.3-11.4-4.9
		c0,0.1,0,0.1,0,0.2c0,1-0.1,2.2-0.3,3.5c-0.5,3.8-1.3,8-1.3,8c-1.1-1.9-2.2-3.1-3.1-3.9c-1.2-1.1-2.2-1.3-3-1.3
		c-0.9,0.1-1.4,0.7-1.6,0.8c5-6,6.7-11.2,6.9-11.7c0-0.4,0-0.8,0-1.2c0,0,0-0.5-0.1-0.5c1.4-1.8,2.6-3.3,3.3-5.5
		c1.3-1.3,2-4.5,2-4.5c1.1-3,0.4-4.2-0.1-4.7c0.8-2.6,2.5-9.7-1.6-14.3c0,0-2.5-3.5-8.8-4.7c0,0-2.4-1-3.4-3.5c0,0-2.2,0.3-2.2,2.2
		l-1-0.4l-1,0.7l-1.1-0.7c0,0-0.4-0.1-1.4,0.2c0,0-7.2,3.1-9.3,9.6c0,0-1.2,2.8,0.3,10.8c-0.3,0.1-1.9,1-0.5,4.9
		c0,0,0.6,2.9,1.8,4.3c0.7,2.1,1.7,4.1,2.9,5.8c0,0,0,0,0,0c0,0,0.2,0.8,0,1.8c0.3,0.8,2.6,6.9,6.8,11.5c-0.2-0.2-0.7-0.6-1.3-0.7
		c-0.7-0.1-1.7,0-2.9,1c-1,0.8-2.1,2.1-3.3,4.1c0,0-1-5-1.4-9.1c-0.1-1-0.2-1.9-0.2-2.6c0-0.2,0-0.3,0-0.4c-3.6,2.6-11.6,5-11.6,5
		c-3.6,1.4-5.2,3.5-5.2,3.5c-2.8,4.1-4.3,6.8-5.1,8.9c-5.5-7.2-8.8-16.3-8.8-26.1C7.3,26.2,26.6,6.9,50.3,6.9z"/>
</g>
</svg>
