<?xml version="1.0" encoding="utf-8"?>
<!-- Generator: Adobe Illustrator 23.0.2, SVG Export Plug-In . SVG Version: 6.00 Build 0)  -->
<svg version="1.1" id="Layer_1" xmlns="http://www.w3.org/2000/svg" xmlns:xlink="http://www.w3.org/1999/xlink" x="0px" y="0px"
	 viewBox="0 0 100 88.9" style="enable-background:new 0 0 100 88.9;" xml:space="preserve">
<style type="text/css">
	.st0{fill:#FFFFFF;}
</style>
<title>well cooked food solid</title>
<desc>Created with Sketch.</desc>
<g>
	<path class="st0" d="M89.7,21.8H10.3v-3.4c0-3.1,2.5-5.7,5.7-5.7h20.4V7c0-1.9,1.5-3.4,3.4-3.4h20.4c1.9,0,3.4,1.5,3.4,3.4v5.7H84
		c3.1,0,5.7,2.5,5.7,5.7V21.8z M6.9,25.2h86.1c3.1,0,5.7,2.5,5.7,5.7v7.9c0,3.1-2.5,5.7-5.7,5.7h-3.4v35.1c0,3.1-2.5,5.7-5.7,5.7H16
		c-3.1,0-5.7-2.5-5.7-5.7V44.4H6.9c-3.1,0-5.7-2.5-5.7-5.7v-7.9C1.3,27.7,3.8,25.2,6.9,25.2z M74,85.2c5.5,0,10-4.5,10-10
		c0-3.4-2.4-8.2-7.2-15.1l-1.9-2.7c-0.1-0.1-0.2-0.2-0.3-0.3c-0.5-0.4-1.2-0.2-1.6,0.3l-1.9,2.7C66.4,67.1,64,71.9,64,75.2
		C64,80.7,68.5,85.2,74,85.2z M79.5,78.9c-0.2-1.4-1-3.5-2.3-6.8L75,68.6c-0.1-0.2-0.2-0.3-0.4-0.4c-0.5-0.3-1.2-0.2-1.6,0.4
		l-2.2,3.5c-1.4,3.2-2.1,5.3-2.3,6.8c-0.7-1-1.1-2.3-1.1-3.7c0-1.5,1.9-5.3,5.6-11.5c0.1-0.2,0.2-0.3,0.4-0.4
		c0.5-0.3,1.2-0.2,1.6,0.4l0,0c3.7,6.2,5.6,10,5.6,11.5C80.6,76.6,80.2,77.9,79.5,78.9z M74,81.8c-1.2,0-2.1-1-2.1-2.1
		c0-0.8,1-6.2,2.1-6.2c1.1,0,2.1,5.4,2.1,6.2C76.1,80.9,75.2,81.8,74,81.8z M26,84.5c5.5,0,10-4.5,10-10c0-3.4-2.4-8.2-7.2-15.1
		l-1.9-2.7c-0.1-0.1-0.2-0.2-0.3-0.3c-0.5-0.4-1.2-0.2-1.6,0.3l-1.9,2.7C18.4,66.4,16,71.1,16,74.5C16,80,20.5,84.5,26,84.5z
		 M31.5,78.2c-0.2-1.4-1-3.5-2.3-6.8L27,67.9c-0.1-0.2-0.2-0.3-0.4-0.4c-0.5-0.3-1.2-0.2-1.6,0.4l-2.2,3.5c-1.4,3.2-2.1,5.3-2.3,6.8
		c-0.7-1-1.1-2.3-1.1-3.7c0-1.5,1.9-5.3,5.6-11.5c0.1-0.2,0.2-0.3,0.4-0.4c0.5-0.3,1.2-0.2,1.6,0.4l0,0c3.7,6.2,5.6,10,5.6,11.5
		C32.6,75.9,32.2,77.1,31.5,78.2z M26,81.1c-1.2,0-2.1-1-2.1-2.1c0-0.8,1-6.2,2.1-6.2c1.1,0,2.1,5.4,2.1,6.2
		C28.1,80.1,27.2,81.1,26,81.1z M50,85.2c5.5,0,10-4.5,10-10c0-3.4-2.4-8.2-7.2-15.1l-1.9-2.7c-0.1-0.1-0.2-0.2-0.3-0.3
		c-0.5-0.4-1.2-0.2-1.6,0.3l-1.9,2.7C42.4,67.1,40,71.9,40,75.2C40,80.7,44.5,85.2,50,85.2z M55.5,78.9c-0.2-1.4-1-3.5-2.3-6.8
		L51,68.6c-0.1-0.2-0.2-0.3-0.4-0.4c-0.5-0.3-1.2-0.2-1.6,0.4l-2.2,3.5c-1.4,3.2-2.1,5.3-2.3,6.8c-0.7-1-1.1-2.3-1.1-3.7
		c0-1.5,1.9-5.3,5.6-11.5c0.1-0.2,0.2-0.3,0.4-0.4c0.5-0.3,1.2-0.2,1.6,0.4l0,0c3.7,6.2,5.6,10,5.6,11.5
		C56.6,76.6,56.2,77.9,55.5,78.9z M50,81.8c-1.2,0-2.1-1-2.1-2.1c0-0.8,1-6.2,2.1-6.2c1.1,0,2.1,5.4,2.1,6.2
		C52.1,80.9,51.2,81.8,50,81.8z M60.2,11.6V9.3c0-1.3-1-2.3-2.3-2.3H42.1c-1.3,0-2.3,1-2.3,2.3v2.3c0,0.6,0.5,1.1,1.1,1.1h18.1
		C59.7,12.7,60.2,12.2,60.2,11.6z M89.7,29.7v10.2c0,0.6,0.5,1.1,1.1,1.1h1.1c1.9,0,3.4-1.5,3.4-3.4V32c0-1.9-1.5-3.4-3.4-3.4h-1.1
		C90.2,28.6,89.7,29.1,89.7,29.7z M9.2,28.6H8.1c-1.9,0-3.4,1.5-3.4,3.4v5.7c0,1.9,1.5,3.4,3.4,3.4h1.1c0.6,0,1.1-0.5,1.1-1.1V29.7
		C10.3,29.1,9.8,28.6,9.2,28.6z"/>
</g>
</svg>
