<?xml version="1.0" encoding="utf-8"?>
<!-- Generator: Adobe Illustrator 23.0.2, SVG Export Plug-In . SVG Version: 6.00 Build 0)  -->
<svg version="1.1" id="Outline" xmlns="http://www.w3.org/2000/svg" xmlns:xlink="http://www.w3.org/1999/xlink" x="0px" y="0px"
	 viewBox="0 0 512 512" style="enable-background:new 0 0 512 512;" xml:space="preserve">
<style type="text/css">
	.st0{fill:#FFFFFF;}
</style>
<circle class="st0" cx="368" cy="328" r="8"/>
<path class="st0" d="M36.2,415c3.7,2,90.8,49,179.8,49c22.5-0.1,45-2.5,67-7.1c40.3,46.9,111,52.3,157.9,12.1s52.3-111,12.1-157.9
	c-21.3-24.8-52.3-39.1-85-39.1c-2.1,0-4.3,0.1-6.4,0.2c-25.4-38-61.2-63.9-102.1-74.6c47.3-24,66.1-81.8,42.1-129.1
	S219.8,2.4,172.5,26.4s-66.1,81.8-42.1,129.1c9.2,18.1,24,32.9,42.1,42.1c-33.2,8.7-63.2,27.4-87,54.8C51,291.9,32,347.2,32,408
	C32,410.9,33.6,413.6,36.2,415z M368,288c53,0,96,43,96,96s-43,96-96,96s-96-43-96-96c-0.3-52.8,42.3-95.7,95.1-96
	C367.4,288,367.7,288,368,288z M136,112c0-44.2,35.8-80,80-80s80,35.8,80,80s-35.8,80-80,80C171.8,191.9,136.1,156.2,136,112z
	 M97.6,262.9C128.4,227.5,170.5,208,216,208c50.7,0,96.7,24.1,127.8,66.6c-60.4,13.3-98.5,73.1-85.2,133.4
	c2.7,12.2,7.4,23.9,14,34.5c-18.7,3.5-37.6,5.3-56.6,5.4c-74.2,0-149.6-35.6-168-44.8C49,348.2,66.5,298.5,97.6,262.9z"/>
<path class="st0" d="M368,448c13.2,0,24-10.8,24-24c0-4.4-3.6-8-8-8s-8,3.6-8,8s-3.6,8-8,8c-4.1,0-7.5-3.1-8-7.2l15.7-62.9
	c1.1-4.3-1.5-8.6-5.8-9.7s-8.6,1.5-9.7,5.8v0.1l-16,64c-0.2,0.6-0.2,1.3-0.2,1.9C344,437.2,354.8,448,368,448z"/>
</svg>
