<?xml version="1.0" encoding="utf-8"?>
<!-- Generator: Adobe Illustrator 23.0.2, SVG Export Plug-In . SVG Version: 6.00 Build 0)  -->
<svg version="1.1" id="Layer_1" xmlns="http://www.w3.org/2000/svg" xmlns:xlink="http://www.w3.org/1999/xlink" x="0px" y="0px"
	 viewBox="0 0 512 512" style="enable-background:new 0 0 512 512;" xml:space="preserve">
<style type="text/css">
	.st0{fill:#FFFFFF;}
</style>
<path class="st0" d="M479.5,247.7H314.3c-9.1,0-16.5-7.4-16.5-16.5s7.4-16.5,16.5-16.5h165.2c9.1,0,16.5,7.4,16.5,16.5
	S488.6,247.7,479.5,247.7z"/>
<path class="st0" d="M429.9,297.3c-4.2,0-8.5-1.6-11.7-4.8c-6.5-6.4-6.5-16.9,0-23.4l37.9-37.9l-37.9-37.9c-6.5-6.5-6.5-16.9,0-23.4
	s16.9-6.4,23.4,0l49.5,49.6c6.5,6.4,6.5,16.9,0,23.4l-49.5,49.5C438.4,295.7,434.1,297.3,429.9,297.3z"/>
<path class="st0" d="M380.4,165.2c9.1,0,16.5-7.4,16.5-16.5V16.5c0-9.1-7.4-16.5-16.5-16.5H33.5c-0.8,0-1.4,0.3-2.1,0.4
	c-1,0.1-1.9,0.3-2.8,0.6c-1.4,0.4-2.7,1.1-3.9,1.9c-0.5,0.3-1.1,0.4-1.6,0.8c-0.2,0.2-0.3,0.4-0.5,0.6c-1.2,1.1-2.2,2.4-3,3.8
	c-0.3,0.6-0.8,1-1.1,1.6c-0.9,2.1-1.5,4.3-1.5,6.8v429.4c0,7.8,5.4,14.5,13.1,16.1l231.2,49.6c1.1,0.3,2.3,0.4,3.5,0.4
	c3.7,0,7.4-1.3,10.4-3.7c3.9-3.1,6.1-7.9,6.1-12.8v-33h99.1c9.1,0,16.5-7.4,16.5-16.5V313.8c0-9.1-7.4-16.5-16.5-16.5
	s-16.5,7.4-16.5,16.5v115.6h-82.6V66.1c0-7.8-5.4-14.5-13.1-16.1L189.4,33h174.4v115.6C363.8,157.8,371.2,165.2,380.4,165.2z
	 M248.2,475.1L50,432.6V36.9l198.2,42.5V475.1z"/>
</svg>
